<svg width="365" height="149" viewBox="0 0 365 149" fill="none" xmlns="http://www.w3.org/2000/svg">
<path opacity="0.1" d="M59.7189 61.988C30.1852 61.1182 2.10059 101.967 -5.5 119V150H386.5L373 15.4999C343 22.9999 311 7.99988 301.852 7.62636C281.222 7.62636 250.458 50.3902 236.704 72.8594C225.412 92.8641 211.007 97.1405 205.216 96.7781C178.288 97.6479 157.803 52.9272 150.926 30.4582C144.846 5.23437 138 0.0161092 134.639 0.01614C129 -0.000122052 120.524 7.40921 111.837 32.6326C103.151 57.856 89.3974 64.8867 83.6065 65.2491C75.5067 65.7561 65.8718 61.9878 59.7189 61.988Z" fill="#109CF1"/>
</svg>
